<svg width="64" height="64" viewBox="0 0 64 64" fill="none" xmlns="http://www.w3.org/2000/svg">
<g clip-path="url(#clip0_114_7)">
<path d="M56.8889 8.88892H7.11111C5.22513 8.88892 3.41639 9.63812 2.0828 10.9717C0.749204 12.3053 0 14.114 0 16L0 48C0 49.886 0.749204 51.6947 2.0828 53.0283C3.41639 54.3619 5.22513 55.1111 7.11111 55.1111H56.8889C58.7749 55.1111 60.5836 54.3619 61.9172 53.0283C63.2508 51.6947 64 49.886 64 48V16C64 14.114 63.2508 12.3053 61.9172 10.9717C60.5836 9.63812 58.7749 8.88892 56.8889 8.88892Z" fill="#003399"/>
<path d="M32.958 17.2534L34.4673 16.1565H32.6025L32.0247 14.3823L31.4487 16.1565H29.5838L31.0931 17.2534L30.5153 19.0277L32.0247 17.9308L33.534 19.0277L32.958 17.2534ZM32.958 48.0677L34.4673 46.9708H32.6025L32.0247 45.1965L31.4487 46.9708H29.5838L31.0931 48.0677L30.5153 49.8419L32.0247 48.745L33.534 49.8419L32.958 48.0677ZM17.5518 32.6597L19.0611 31.5628H17.1944L16.6184 29.7885L16.0407 31.5628H14.1758L15.6851 32.6597L15.1091 34.4339L16.6184 33.337L18.1278 34.4339L17.5518 32.6597ZM19.5198 25.0419L21.0291 23.945H19.1624L18.5864 22.1708L18.0104 23.945H16.1438L17.6531 25.0419L17.0771 26.8161L18.5864 25.7192L20.0958 26.8161L19.5198 25.0419ZM19.5198 40.3645L21.0291 39.2677H19.1624L18.5864 37.4934L18.0104 39.2677H16.1438L17.6531 40.3645L17.0771 42.1388L18.5864 41.0419L20.0958 42.1388L19.5198 40.3645ZM25.2549 19.3174L26.7642 18.2205H24.8976L24.3216 16.4463L23.7456 18.2205H21.8789L23.3882 19.3174L22.8122 21.0917L24.3216 19.9948L25.8309 21.0917L25.2549 19.3174ZM25.2549 46.1032L26.7642 45.0063H24.8976L24.3216 43.2321L23.7456 45.0063H21.8789L23.3882 46.1032L22.8122 47.8774L24.3216 46.7823L25.8309 47.8774L25.2549 46.1032ZM46.4478 32.6597L44.9385 31.5628H46.8051L47.3811 29.7885L47.9589 31.5628H49.8238L48.3144 32.6597L48.8905 34.4339L47.3811 33.337L45.8718 34.4339L46.4478 32.6597ZM44.4798 25.0419L42.9704 23.945H44.8371L45.4131 22.1708L45.9891 23.945H47.8558L46.3465 25.0419L46.9224 26.8161L45.4131 25.7192L43.9038 26.8161L44.4798 25.0419ZM44.4798 40.3645L42.9704 39.2677H44.8371L45.4131 37.4934L45.9891 39.2677H47.8558L46.3465 40.3645L46.9224 42.1388L45.4131 41.0419L43.9038 42.1388L44.4798 40.3645ZM38.7447 19.3174L37.2353 18.2205H39.102L39.678 16.4463L40.254 18.2205H42.1207L40.6113 19.3174L41.1873 21.0917L39.678 19.9948L38.1687 21.0917L38.7447 19.3174ZM38.7447 46.1032L37.2353 45.0063H39.102L39.678 43.2321L40.254 45.0063H42.1207L40.6113 46.1032L41.1873 47.8774L39.678 46.7823L38.1687 47.8774L38.7447 46.1032Z" fill="#FFCC00"/>
</g>
<defs>
<clipPath id="clip0_114_7">
<rect width="64" height="64" fill="white"/>
</clipPath>
</defs>
</svg>
