<svg width="64" height="64" viewBox="0 0 64 64" fill="none" xmlns="http://www.w3.org/2000/svg">
<g clip-path="url(#clip0_114_2)">
<path d="M63.0133 12.4445C61.7813 10.3271 59.5147 8.88892 56.8889 8.88892H32V12.4445H63.0133ZM0 44.4445H64V48H0V44.4445ZM32 30.2222H64V33.7778H32V30.2222ZM32 23.1111H64V26.6667H32V23.1111ZM0 37.3334H64V40.8889H0V37.3334ZM7.11111 55.1111H56.8889C59.5147 55.1111 61.7813 53.6729 63.0133 51.5556H0.986667C2.21867 53.6729 4.48533 55.1111 7.11111 55.1111ZM32 16H64V19.5556H32V16Z" fill="#B22334"/>
<path d="M0.120889 49.207C0.151111 49.3723 0.184889 49.5377 0.225778 49.6994C0.272 49.879 0.328889 50.0514 0.389333 50.2257C0.547556 50.6861 0.739556 51.1306 0.981333 51.5466L0.986667 51.5554H63.0133L63.0169 51.5483C63.2555 51.1292 63.4532 50.6881 63.6071 50.231C63.7242 49.8974 63.8146 49.555 63.8773 49.207C63.9502 48.8159 64 48.4141 64 47.9999H0C0 48.4141 0.0497778 48.8141 0.120889 49.207ZM0 40.8888H64V44.4443H0V40.8888ZM0 33.7777V37.3332H64V33.7777H32H0ZM32 26.6666H64V30.2221H32V26.6666ZM32 19.5554H64V23.111H32V19.5554ZM0.227556 14.3003C0.272 14.119 0.334222 13.9466 0.391111 13.7723C0.329374 13.946 0.27481 14.1222 0.227556 14.3003ZM32 15.9999H64C64 15.5857 63.9502 15.1839 63.8773 14.791C63.8151 14.4427 63.7241 14.1002 63.6053 13.767C63.4512 13.308 63.253 12.865 63.0133 12.4443H32V15.9999Z" fill="#EEEEEE"/>
<path d="M32 8.88892H7.11111C5.22513 8.88892 3.41639 9.63812 2.0828 10.9717C0.749204 12.3053 0 14.114 0 16L0 33.7778H32V8.88892Z" fill="#3C3B6E"/>
<path d="M3.55713 13.735L4.6558 14.5332L4.23624 15.8221L5.33313 15.0257L6.4318 15.8221L6.01224 14.5332L7.11091 13.735H5.75268L5.33313 12.4443L4.91535 13.735H3.55713ZM7.11268 17.2906L8.21135 18.0888L7.7918 19.3777L8.88868 18.5812L9.98735 19.3777L9.5678 18.0888L10.6665 17.2906H9.30824L8.88868 15.9999L8.47091 17.2906H7.11268ZM14.2238 17.2906L15.3225 18.0888L14.9029 19.3777L15.9998 18.5812L17.0985 19.3777L16.6789 18.0888L17.7776 17.2906H16.4194L15.9998 15.9999L15.582 17.2906H14.2238ZM21.3349 17.2906L22.4336 18.0888L22.014 19.3777L23.1109 18.5812L24.2096 19.3777L23.79 18.0888L24.8887 17.2906H23.5305L23.1109 15.9999L22.6931 17.2906H21.3349ZM7.11268 24.4017L8.21135 25.1999L7.7918 26.4888L8.88868 25.6923L9.98735 26.4888L9.5678 25.1999L10.6665 24.4017H9.30824L8.88868 23.111L8.47091 24.4017H7.11268ZM14.2238 24.4017L15.3225 25.1999L14.9029 26.4888L15.9998 25.6923L17.0985 26.4888L16.6789 25.1999L17.7776 24.4017H16.4194L15.9998 23.111L15.582 24.4017H14.2238ZM21.3349 24.4017L22.4336 25.1999L22.014 26.4888L23.1109 25.6923L24.2096 26.4888L23.79 25.1999L24.8887 24.4017H23.5305L23.1109 23.111L22.6931 24.4017H21.3349ZM10.6682 13.735L11.7669 14.5332L11.3474 15.8221L12.4442 15.0257L13.5429 15.8221L13.1234 14.5332L14.222 13.735H12.8638L12.4442 12.4443L12.0265 13.735H10.6682ZM17.7794 13.735L18.878 14.5332L18.4585 15.8221L19.5554 15.0257L20.654 15.8221L20.2345 14.5332L21.3331 13.735H19.9749L19.5554 12.4443L19.1376 13.735H17.7794ZM24.8905 13.735L25.9891 14.5332L25.5696 15.8221L26.6665 15.0257L27.7651 15.8221L27.3456 14.5332L28.4442 13.735H27.086L26.6665 12.4443L26.2487 13.735H24.8905ZM3.55713 20.8461L4.6558 21.6443L4.23624 22.9332L5.33313 22.1368L6.4318 22.9332L6.01224 21.6443L7.11091 20.8461H5.75268L5.33313 19.5554L4.91535 20.8461H3.55713ZM11.3474 22.9332L12.4442 22.1368L13.5429 22.9332L13.1234 21.6443L14.222 20.8461H12.8638L12.4442 19.5554L12.0265 20.8461H10.6682L11.7669 21.6443L11.3474 22.9332ZM17.7794 20.8461L18.878 21.6443L18.4585 22.9332L19.5554 22.1368L20.654 22.9332L20.2345 21.6443L21.3331 20.8461H19.9749L19.5554 19.5554L19.1376 20.8461H17.7794ZM24.8905 20.8461L25.9891 21.6443L25.5696 22.9332L26.6665 22.1368L27.7651 22.9332L27.3456 21.6443L28.4442 20.8461H27.086L26.6665 19.5554L26.2487 20.8461H24.8905ZM3.55713 27.9572L4.6558 28.7554L4.23624 30.0443L5.33313 29.2479L6.4318 30.0443L6.01224 28.7554L7.11091 27.9572H5.75268L5.33313 26.6666L4.91535 27.9572H3.55713ZM11.3474 30.0443L12.4442 29.2479L13.5429 30.0443L13.1234 28.7554L14.222 27.9572H12.8638L12.4442 26.6666L12.0265 27.9572H10.6682L11.7669 28.7554L11.3474 30.0443ZM17.7794 27.9572L18.878 28.7554L18.4585 30.0443L19.5554 29.2479L20.654 30.0443L20.2345 28.7554L21.3331 27.9572H19.9749L19.5554 26.6666L19.1376 27.9572H17.7794ZM24.8905 27.9572L25.9891 28.7554L25.5696 30.0443L26.6665 29.2479L27.7651 30.0443L27.3456 28.7554L28.4442 27.9572H27.086L26.6665 26.6666L26.2487 27.9572H24.8905Z" fill="white"/>
</g>
<defs>
<clipPath id="clip0_114_2">
<rect width="64" height="64" fill="white"/>
</clipPath>
</defs>
</svg>
